<svg xmlns="http://www.w3.org/2000/svg" xmlns:xlink="http://www.w3.org/1999/xlink" fill="none" version="1.1" width="64" height="64" viewBox="0 0 64 64"><g><g><rect x="0" y="0" width="64" height="63.71811294555664" rx="5" fill="#296C85" fill-opacity="1"/></g><g transform="matrix(0.9891850352287292,0.14667274057865143,-0.1479177176952362,0.9889996647834778,2.0083926518407225,-2.3623488223076663)"><path d="M49.54468705749512,18.517138604736328Q57.80948705749512,14.65176860473633,59.84158705749512,16.455608604736327Q54.69628705749512,23.26303860473633,55.77698705749512,24.45073860473633Q56.00538705749512,24.701738604736327,56.511887057495116,24.701738604736327Q59.41478705749512,24.701738604736327,61.44688705749512,22.89793860473633Q63.47898705749512,21.09405860473633,63.47898705749512,18.517138604736328Q63.47898705749512,15.940218604736328,61.44688705749512,14.13637860473633Q59.41478705749512,12.332538604736328,56.511887057495116,12.332538604736328Q53.60888705749512,12.332538604736328,51.57678705749512,14.13637860473633Q49.54468705749512,15.940218604736328,49.54468705749512,18.517138604736328ZM17.031187057495117,57.68623860473633L26.32074705749512,49.440138604736326L58.834187057495114,49.440138604736326Q60.75018705749512,49.440138604736326,62.114587057495115,48.22903860473633Q63.47898705749512,47.017838604736326,63.47898705749512,45.317038604736325L63.47898705749512,26.76323860473633Q62.491987057495116,27.48483860473633,61.330787057495115,27.922838604736327Q60.169587057495114,28.36093860473633,58.834187057495114,28.61863860473633L58.834187057495114,45.317038604736325L24.346717057495116,45.317038604736325L21.675967057495118,47.63633860473633L21.675967057495118,45.317038604736325L21.675967057495118,20.57866860473633L45.13208705749511,20.57866860473633Q44.89988705749512,19.547908604736328,44.89988705749512,18.517138604736328Q44.89988705749512,17.486368604736327,45.13208705749511,16.455608604736327L21.675967057495118,16.455608604736327Q19.759997057495116,16.455608604736327,18.395597057495117,17.66675860473633Q17.031187057495117,18.877908604736326,17.031187057495117,20.57866860473633L17.031187057495117,57.68623860473633Z" fill="#EFEFEF" fill-opacity="0.20000000298023224" style="mix-blend-mode:passthrough"/></g><g><path d="M44.23225898742676,22.14717860473633L44.23225898742676,29.443938604736328L48.25805898742676,29.443938604736328Q51.25165898742676,29.443938604736328,52.387058987426755,30.93413860473633Q53.522558987426756,32.42433860473633,53.522558987426756,35.45603860473633L53.522558987426756,53.64653860473633L47.432258987426756,53.64653860473633L47.432258987426756,52.31053860473633L37.729058987426754,52.31053860473633L37.729058987426754,53.64653860473633L31.63865898742676,53.64653860473633L31.63865898742676,50.35783860473633L27.561258987426758,53.85203860473633Q26.477458987426758,52.56743860473633,24.929058987426757,50.94883860473633Q23.380658987426756,49.33013860473633,20.645158987426758,46.247038604736325Q20.12905898742676,47.36463860473633,18.580648987426756,49.02183860473633Q17.522588987426758,50.396438604736325,15.432268987426758,52.31053860473633Q12.903238987426757,53.72363860473633,11.974198987426758,53.59513860473633L9.032258987426758,48.09693860473633L11.199998987426758,48.09693860473633Q12.335488987426757,48.04553860473633,13.445158987426758,47.685838604736325Q14.554838987426757,47.32613860473633,15.432258987426758,46.58103860473633Q16.309678987426757,45.83593860473633,16.877418987426758,44.67973860473633Q17.44515898742676,43.52353860473633,17.44515898742676,41.87923860473633L17.44515898742676,22.14716860473633L23.070958987426756,22.14716860473633L23.070958987426756,40.64593860473633Q23.99995898742676,41.519538604736326,25.13545898742676,42.62433860473632Q26.27095898742676,43.72913860473633,27.458058987426757,44.859638604736325Q28.645158987426758,45.99013860473633,29.729058987426757,47.09483860473633Q30.812858987426758,48.19963860473633,31.63865898742676,49.02183860473633L31.63865898742676,29.443938604736328L37.16125898742676,29.443938604736328L37.729058987426754,29.443938604736328L38.193558987426755,29.443938604736328L38.193558987426755,12.332538604736328L44.23225898742676,12.332538604736328L44.23225898742676,16.13506860473633Q52.335458987426755,16.03220860473633,53.522558987426756,16.135018604736327Q54.70965898742676,16.23782860473633,50.58065898742676,22.14716860473633L44.23225898742676,22.14717860473633ZM24.36125898742676,41.21123860473632L24.36125898742676,16.751698604736326L16.154838987426757,16.751698604736326L16.154838987426757,41.21123860473632L10.425808987426757,41.21123860473632L10.425808987426757,16.135048604736326Q10.445168987426758,15.338588604736328,11.200008987426758,14.387958604736328Q11.954838987426758,13.437328604736328,13.445158987426758,12.332538604736328L24.36125898742676,12.332538604736328Q26.838758987426758,12.332538604736328,30.090358987426757,16.23783860473633L30.090358987426757,41.21123860473632L24.36125898742676,41.21123860473632ZM37.729058987426754,35.610238604736324Q37.729058987426754,44.60273860473633,37.729058987426754,47.685838604736325C37.729058987426754,50.76893860473633,38.34835898742676,46.58103860473633,41.29035898742676,46.58103860473633Q44.23225898742676,46.58103860473633,47.432258987426756,46.58103860473633L47.432258987426756,35.610238604736324L37.729058987426754,35.610238604736324Z" fill="#FFFFFF" fill-opacity="1"/></g></g></svg>